<svg width="80" height="80" viewBox="0 0 80 80" fill="none" xmlns="http://www.w3.org/2000/svg">
<g clip-path="url(#clip0)">
<path d="M29.1445 58.9365L60.4989 27.5821C65.6254 29.5907 71.6766 28.5268 75.8186 24.3846C79.9595 20.2437 81.0236 14.1923 79.0161 9.06488L71.7827 16.2983L65.4089 14.5912L63.7018 8.21739L70.9352 0.984004C65.8076 -1.02348 59.7564 0.0404169 55.6155 4.18148C51.4735 8.32348 50.4094 14.3748 52.418 19.5012L21.0636 50.8557C15.5482 48.531 8.93571 49.6149 4.44231 54.1083C-1.48077 60.0314 -1.48077 69.6347 4.44231 75.5578C10.3654 81.4809 19.9687 81.4809 25.8918 75.5578C30.3852 71.0644 31.4691 64.4518 29.1445 58.9365V58.9365ZM11.1266 68.8735C8.89477 66.6416 8.89587 63.0234 11.1266 60.7926C13.3585 58.5608 16.9756 58.5609 19.2075 60.7926C21.4394 63.0243 21.4394 66.6416 19.2075 68.8735C16.9767 71.1041 13.3585 71.1052 11.1266 68.8735Z" fill="#60E2F4"/>
<path d="M25.8918 75.5577C19.9688 81.4808 10.3654 81.4808 4.44232 75.5577L11.1266 68.8734C13.3585 71.1053 16.9768 71.1042 19.2075 68.8734C21.4394 66.6416 21.4392 63.0244 19.2075 60.7925L65.4087 14.5912L71.7826 16.2982L79.016 9.06482C81.0234 14.1924 79.9595 20.2436 75.8185 24.3845C71.6765 28.5265 65.6251 29.5906 60.4988 27.582L29.1443 58.9365C31.4691 64.4517 30.3852 71.0643 25.8918 75.5577V75.5577Z" fill="#29C5EC"/>
<path d="M58.169 54.8543L15.028 11.7134L17.999 8.74247L6.90858 0.000976562L0.000976562 6.90842L8.74263 17.999L11.7135 15.0279L54.8545 58.1688L58.169 54.8543Z" fill="#CDDBF9"/>
<path d="M56.5108 56.5109L3.45391 3.45398L0.000183105 6.9077L8.74183 17.9982L11.7127 15.0272L54.8537 58.1681L56.5108 56.5109Z" fill="#F3F6FF"/>
<path d="M47.5682 58.8996L55.6492 66.9804L59.1593 66.9329L66.9871 59.1051L66.9806 55.649L58.8996 47.5682L47.5682 58.8996Z" fill="#3C4A83"/>
<path d="M47.5682 58.8996L55.6492 66.9804L59.1593 66.9329L63.0462 63.046L53.234 53.2338L47.5682 58.8996Z" fill="#48588B"/>
<path d="M55.6491 66.9803L66.3207 77.6519C67.8864 79.2176 69.937 79.9997 71.9876 79.9997C74.0382 79.9997 76.0888 79.2176 77.6532 77.653C80.782 74.5242 80.782 69.4506 77.6521 66.3206L66.9804 55.649L55.6491 66.9803Z" fill="#EA0016"/>
<path d="M55.6491 66.9803L66.3207 77.6519C67.8864 79.2175 69.937 79.9997 71.9876 79.9997C74.0382 79.9997 76.0888 79.2175 77.6532 77.653L61.3147 61.3147L55.6491 66.9803Z" fill="#FF641A"/>
</g>
<defs>
<clipPath id="clip0">
<rect width="80" height="80" fill="white"/>
</clipPath>
</defs>
</svg>
