<svg width="32" height="36" viewBox="0 0 32 36" fill="none" xmlns="http://www.w3.org/2000/svg">
<path d="M15.2266 30.1198L10.7545 25.6467L6.35064 30.0506L10.8237 34.5227C12.0368 35.7358 14.0124 35.737 15.2266 34.5227C16.4409 33.3084 16.4409 31.334 15.2266 30.1198V30.1198Z" fill="#282828"/>
<path d="M25.4319 19.7761L18.8273 13.171L12.2222 6.56536C11.9516 6.29475 11.5573 6.19338 11.1873 6.30589C10.8214 6.41639 10.5458 6.72042 10.4708 7.09544L9.28696 13.0157C8.73017 15.8008 7.42645 18.3362 5.56303 20.4561L6.35071 23.3195L7.5148 24.4836L8.67834 25.6472L11.5418 26.4348C13.6612 24.572 16.1975 23.2692 18.9827 22.7114L24.9019 21.5276C25.277 21.4526 25.581 21.1769 25.6915 20.811C25.8019 20.444 25.7025 20.0467 25.4319 19.7761V19.7761Z" fill="#ECECF1"/>
<path d="M11.5417 26.4349C13.6611 24.5721 16.1974 23.2692 18.9827 22.7114L24.9019 21.5276C25.2769 21.4526 25.5809 21.1769 25.6914 20.8111C25.8019 20.4441 25.7026 20.0468 25.432 19.7762L18.8273 13.1711L7.51474 24.4836L8.67828 25.6471L11.5417 26.4349Z" fill="#CFDDE2"/>
<path d="M30.0963 16.6837H25.9447C25.3711 16.6837 24.9068 16.2195 24.9068 15.6459C24.9068 15.0722 25.3711 14.608 25.9447 14.608H30.0963C30.6699 14.608 31.1342 15.0722 31.1342 15.6459C31.1342 16.2195 30.6699 16.6837 30.0963 16.6837Z" fill="#FFC473"/>
<path d="M15.5659 6.30489C14.9922 6.30489 14.528 5.84068 14.528 5.26701V1.04628C14.528 0.472604 14.9922 0.00839233 15.5659 0.00839233C16.1396 0.00839233 16.6038 0.472604 16.6038 1.04628V5.26701C16.6038 5.84068 16.1396 6.30489 15.5659 6.30489V6.30489Z" fill="#FFE470"/>
<path d="M30.9208 4.74867C30.2082 4.03606 29.3035 3.68262 28.2855 3.71445C28.3173 2.6965 27.9639 1.79181 27.2513 1.07919C25.8109 -0.361183 23.5528 -0.359522 22.1103 1.08293C20.585 2.60827 20.8629 4.84713 21.2476 7.94577C21.3143 8.48284 21.3832 9.03811 21.4494 9.63365C21.4762 9.87485 21.5849 10.0907 21.747 10.2529C21.9092 10.4151 22.1251 10.5237 22.3663 10.5505C22.9619 10.6167 23.5171 10.6856 24.0542 10.7524C27.1528 11.1371 29.3917 11.4151 30.917 9.88966C32.3596 8.44721 32.3611 6.18905 30.9208 4.74867V4.74867Z" fill="#629DFF"/>
<path d="M30.9208 4.74869C30.2082 4.03607 29.3035 3.68264 28.2855 3.71447C28.2855 3.71391 28.2855 3.71336 28.2855 3.71274L21.7463 10.252C21.7466 10.2522 21.7468 10.2526 21.7471 10.2529C21.9093 10.4151 22.1252 10.5237 22.3664 10.5505C22.9619 10.6167 23.5172 10.6856 24.0543 10.7523C27.1529 11.137 29.3918 11.415 30.9171 9.88961C32.3596 8.44722 32.3611 6.18906 30.9208 4.74869Z" fill="#3B82F6"/>
<path d="M8.55262 23.4457L5.56303 20.4561C5.33373 20.717 5.13009 20.9967 4.88308 21.2438L1.21401 24.9129C-0.404671 26.5315 -0.404671 29.1658 1.21401 30.7844C2.83028 32.4027 5.46692 32.404 7.08457 30.7844L10.7547 27.1143C11.0016 26.8673 11.2812 26.6639 11.5418 26.4348L8.55262 23.4457Z" fill="#629DFF"/>
<path d="M7.08443 30.7844L10.7545 27.1143C11.0015 26.8673 11.2811 26.6639 11.5417 26.4348L8.55255 23.4457L1.21394 30.7844C2.83014 32.4027 5.46678 32.4041 7.08443 30.7844V30.7844Z" fill="#3B82F6"/>
</svg>
