<svg width="50" height="50" viewBox="0 0 50 50" fill="none" xmlns="http://www.w3.org/2000/svg">
<g clip-path="url(#clip0)">
<path d="M23.9087 42.5025L17.598 36.1905L11.3836 42.4049L17.6957 48.7156C19.4075 50.4274 22.1952 50.429 23.9087 48.7156C25.6222 47.0021 25.6222 44.216 23.9087 42.5025V42.5025Z" fill="#282828"/>
<path d="M38.3095 27.9064L28.9896 18.5859L19.669 9.26451C19.2872 8.88265 18.7308 8.73961 18.2088 8.89837C17.6925 9.05429 17.3035 9.48332 17.1976 10.0125L15.5271 18.3667C14.7414 22.2968 12.9017 25.8746 10.2722 28.8659L11.3837 32.9066L13.0264 34.5493L14.6683 36.1912L18.709 37.3027C21.6996 34.6741 25.2787 32.8356 29.209 32.0485L37.5617 30.378C38.0909 30.2721 38.5199 29.8831 38.6758 29.3668C38.8316 28.8489 38.6914 28.2883 38.3095 27.9064V27.9064Z" fill="#ECECF1"/>
<path d="M18.7089 37.3027C21.6996 34.6741 25.2786 32.8357 29.2089 32.0485L37.5616 30.378C38.0908 30.2722 38.5198 29.8832 38.6758 29.3669C38.8317 28.8491 38.6915 28.2884 38.3096 27.9066L28.9897 18.586L13.0263 34.5492L14.6682 36.1911L18.7089 37.3027Z" fill="#CFDDE2"/>
<path d="M44.8915 23.5427H39.0332C38.2237 23.5427 37.5686 22.8876 37.5686 22.0781C37.5686 21.2686 38.2237 20.6135 39.0332 20.6135H44.8915C45.7011 20.6135 46.3561 21.2686 46.3561 22.0781C46.3561 22.8876 45.7011 23.5427 44.8915 23.5427Z" fill="#FFC473"/>
<path d="M24.3875 8.89695C23.5779 8.89695 22.9229 8.24189 22.9229 7.43237V1.47642C22.9229 0.666898 23.5779 0.0118408 24.3875 0.0118408C25.197 0.0118408 25.852 0.666898 25.852 1.47642V7.43237C25.852 8.24189 25.197 8.89695 24.3875 8.89695V8.89695Z" fill="#FFE470"/>
<path d="M46.055 6.70093C45.0494 5.69535 43.7728 5.19662 42.3363 5.24153C42.3812 3.80507 41.8825 2.52845 40.8769 1.52287C38.8444 -0.509672 35.6579 -0.507328 33.6224 1.52814C31.4699 3.68058 31.8622 6.83987 32.405 11.2124C32.4992 11.9703 32.5964 12.7538 32.6898 13.5942C32.7276 13.9346 32.8809 14.2392 33.1098 14.4681C33.3387 14.6969 33.6433 14.8502 33.9837 14.888C34.824 14.9815 35.6076 15.0787 36.3654 15.1728C40.738 15.7157 43.8973 16.108 46.0497 13.9555C48.0853 11.92 48.0875 8.73347 46.055 6.70093V6.70093Z" fill="#629DFF"/>
<path d="M46.055 6.70096C45.0494 5.69538 43.7728 5.19664 42.3363 5.24156C42.3363 5.24077 42.3363 5.23999 42.3363 5.23911L33.1087 14.4667C33.1091 14.4671 33.1095 14.4676 33.1099 14.468C33.3387 14.6969 33.6434 14.8502 33.9837 14.8879C34.8241 14.9814 35.6077 15.0786 36.3655 15.1728C40.7381 15.7156 43.8974 16.1079 46.0498 13.9554C48.0853 11.92 48.0875 8.7335 46.055 6.70096Z" fill="#3B82F6"/>
<path d="M14.4909 33.0846L10.2722 28.866C9.94866 29.2341 9.66131 29.6288 9.31274 29.9775L4.13527 35.155C1.85111 37.4391 1.85111 41.1563 4.13527 43.4404C6.416 45.7239 10.1366 45.7259 12.4193 43.4404L17.5983 38.2614C17.9467 37.913 18.3413 37.6259 18.709 37.3026L14.4909 33.0846Z" fill="#629DFF"/>
<path d="M12.4191 43.4403L17.598 38.2614C17.9465 37.9129 18.3411 37.6259 18.7088 37.3026L14.4908 33.0846L4.13516 43.4403C6.4158 45.724 10.1364 45.726 12.4191 43.4403V43.4403Z" fill="#3B82F6"/>
</g>
<defs>
<clipPath id="clip0">
<rect width="50" height="50" fill="white"/>
</clipPath>
</defs>
</svg>
