<svg width="80" height="80" viewBox="0 0 80 80" fill="none" xmlns="http://www.w3.org/2000/svg">
<path d="M40 7.96875C22.3097 7.96875 7.96875 22.3097 7.96875 40C7.96875 57.6903 22.3097 72.0312 40 72.0312C57.6903 72.0312 72.0312 57.6903 72.0312 40C72.0312 22.3097 57.6903 7.96875 40 7.96875ZM40 59.5312C29.2131 59.5312 20.4688 50.7869 20.4688 40C20.4688 29.2131 29.2131 20.4688 40 20.4688C50.7869 20.4688 59.5312 29.2131 59.5312 40C59.5312 50.7869 50.7869 59.5312 40 59.5312Z" fill="#FF5526"/>
<path d="M40 15.7812C26.6244 15.7812 15.7812 26.6244 15.7812 40C15.7812 53.3756 26.6244 64.2188 40 64.2188C53.3756 64.2188 64.2188 53.3756 64.2188 40C64.2188 26.6244 53.3756 15.7812 40 15.7812ZM40 59.5312C29.2131 59.5312 20.4688 50.7869 20.4688 40C20.4688 29.2131 29.2131 20.4688 40 20.4688C50.7869 20.4688 59.5312 29.2131 59.5312 40C59.5312 50.7869 50.7869 59.5312 40 59.5312Z" fill="#FF4927"/>
<path d="M39.375 59.5203V72.0234C22.7583 71.7052 9.24202 58.7342 8.05639 42.3437H1.09561C0.227017 42.3437 -0.295014 41.38 0.179517 40.6525L14.465 18.7484C14.8965 18.0867 15.8658 18.0867 16.2972 18.7484L30.5828 40.6525C31.0573 41.38 30.5353 42.3437 29.6667 42.3437H20.6105C21.7444 51.8225 29.665 59.2148 39.375 59.5203Z" fill="#FFB23C"/>
<path d="M8.05639 42.3437H7.03311H3.87561H1.09561C0.227017 42.3437 -0.295014 41.38 0.179517 40.6525L14.465 18.7484C14.8965 18.0867 15.8658 18.0867 16.2973 18.7484L18.35 21.8958L8.62967 36.7998C8.29077 37.3195 8.66358 38.0078 9.28405 38.0078H11.6501C12.9445 38.0078 13.9939 39.0572 13.9939 40.3516V42.3437C14.5026 49.3764 17.2825 55.7784 21.6023 60.8223L17.9337 63.215C12.3267 57.8833 8.64936 50.5412 8.05639 42.3437Z" fill="#FFA40C"/>
<path d="M40.7812 72.0184V78.9043C40.7812 79.7729 39.8175 80.295 39.09 79.8204L17.1859 65.535C16.5242 65.1034 16.5242 64.1342 17.1859 63.7026L39.09 49.417C39.8175 48.9425 40.7812 49.4645 40.7812 50.3331V59.5132C50.9984 59.1111 59.1983 50.8625 59.5203 40.6248H72.0234C71.695 57.7664 57.9025 71.6081 40.7812 72.0184Z" fill="#FFF5F5"/>
<path d="M79.8206 39.3475L65.535 61.2516C65.1034 61.9133 64.1342 61.9133 63.7027 61.2516L49.4172 39.3475C48.9427 38.62 49.4647 37.6562 50.3333 37.6562H59.3895C58.2556 28.1777 50.335 20.7852 40.625 20.4797V7.97656C57.2417 8.29484 70.758 21.2658 71.9436 37.6562H78.9044C79.773 37.6562 80.295 38.62 79.8206 39.3475Z" fill="#066DAE"/>
<path d="M40.91 0.179363L62.8141 14.465C63.4758 14.8966 63.4758 15.8658 62.8141 16.2972L40.91 30.5828C40.1825 31.0573 39.2188 30.5353 39.2188 29.6667V1.09561C39.2188 0.227019 40.1825 -0.295012 40.91 0.179363Z" fill="#FF5526"/>
<path d="M62.8141 16.2973L40.91 30.5828C40.1825 31.0574 39.2188 30.5353 39.2188 29.6667V26.2273V23.9044V15.7813H41.2109C42.5053 15.7813 43.5547 16.8306 43.5547 18.125V21.6534C43.5547 22.2739 44.2431 22.6467 44.7627 22.3078L59.8011 12.5L62.8141 14.465C63.4758 14.8966 63.4758 15.8658 62.8141 16.2973Z" fill="#FF4927"/>
<path d="M67.7439 57.8647L65.535 61.2515C65.1034 61.9133 64.1342 61.9133 63.7026 61.2515L49.4172 39.3475C48.9426 38.62 49.4647 37.6562 50.3333 37.6562H52.8642H56.5833H59.3895C58.7095 31.9722 55.5884 27.039 51.105 23.9339L54.9911 21.3994C60.0642 24.8384 63.2858 31.1634 64.0625 37.6562V39.6484C64.0625 40.9428 63.0131 41.9922 61.7187 41.9922H58.8342C58.2137 41.9922 57.8409 42.6806 58.1798 43.2001L67.7439 57.8647Z" fill="#015D96"/>
<path d="M63.8251 61.4044C58.1239 67.7456 49.9281 71.7992 40.7812 72.0184V74.2169V76.5234V78.9044C40.7812 79.773 39.8175 80.295 39.09 79.8205L17.1859 65.535C16.5242 65.1034 16.5242 64.1342 17.1859 63.7026L19.3748 62.275L35.2372 72.6203C35.7569 72.9592 36.4451 72.5862 36.4451 71.9659V69.6747C36.4451 68.3803 37.4945 67.3309 38.7889 67.3309H40.7812C48.9826 67.1344 56.4192 63.8551 61.9787 58.6083L63.7026 61.2516C63.7394 61.308 63.7812 61.3577 63.8251 61.4044Z" fill="#EAFAFF"/>
</svg>
