<svg width="80" height="80" viewBox="0 0 80 80" fill="none" xmlns="http://www.w3.org/2000/svg">
<g clip-path="url(#clip0)">
<path d="M33.7482 24.0539C31.9263 21.6321 28.7768 20.6482 25.7074 21.6852L16.7926 25.5578C15.4968 26.1206 14.4147 27.0453 13.6566 28.2379L0.740953 48.5742C-0.991835 52.0416 0.418077 56.2738 3.88609 58.009C5.79161 58.9618 8.15367 58.9776 10.1733 58.0823C12.0959 57.2326 13.501 55.6695 14.0301 53.7927L33.2812 27.3364C34.3158 26.5582 34.5239 25.0885 33.7482 24.0539Z" fill="#FFBFAB"/>
<path d="M23.4369 58.7506H14.0619V68.1256C14.0619 70.7147 16.1609 72.8131 18.7494 72.8131C21.3385 72.8131 23.4369 70.7147 23.4369 68.1256C23.4369 70.7147 25.5359 72.8131 28.1244 72.8131C30.7135 72.8131 32.8119 70.7147 32.8119 68.1256V58.7506H23.4369Z" fill="#FFBFAB"/>
<path d="M65.9375 35.3125H61.6559L36.5155 23.1256L15.7025 50.7349L70.625 58.7506L75.3125 40.0006L70.625 35.3125H65.9375Z" fill="#FFCEBF"/>
<path d="M14.9042 65.4108C14.7699 65.6024 14.5697 65.8063 14.3585 65.9442L8.40575 70.3595C7.63732 70.9662 6.53136 70.993 5.68724 70.4016C4.84252 69.8102 4.48912 68.7616 4.79674 67.832L6.90978 60.7281C6.96715 60.4822 7.09044 60.2252 7.22472 60.033L13.753 58.8818L14.9042 65.4108Z" fill="#FFCEBF"/>
<path d="M13.7531 58.8824L14.9042 65.4108C14.7693 65.6024 14.5697 65.8063 14.3585 65.9442L8.40576 70.3595C7.63733 70.9662 6.53137 70.993 5.68665 70.4016L13.7531 58.8824Z" fill="#FFA78F"/>
<path d="M51.2011 13.573L47.1679 19.3329L40.6396 20.484L39.4885 13.9557L43.5211 8.19582C44.2743 7.12039 45.7104 6.8677 46.7852 7.62026L50.6256 10.3089C51.7004 11.062 51.9537 12.4982 51.2011 13.573V13.573Z" fill="#54469D"/>
<path d="M51.2011 13.573L47.1679 19.3329L40.6396 20.484L48.7054 8.96484L50.625 10.3088C51.7004 11.062 51.9537 12.4982 51.2011 13.573Z" fill="#392E6E"/>
<path d="M7.22595 60.0342L39.4916 13.9539L47.1716 19.3311L14.906 65.4114L7.22595 60.0342Z" fill="#F27281"/>
<path d="M11.0663 62.7228L43.3313 16.6425L47.171 19.3311L14.906 65.4114L11.0663 62.7228Z" fill="#E63950"/>
<path d="M16.4056 49.3756C12.5226 49.3756 9.37439 52.5232 9.37439 56.4069C9.37439 60.2899 12.5226 63.4381 16.4056 63.4381H34.6008L37.193 64.7333C41.629 66.9513 46.5979 68.1256 51.5625 68.1256C56.5271 68.1256 61.8085 66.9513 66.2439 64.7333L72.9687 61.3702V49.3756H16.4056Z" fill="#FFCEBF"/>
<path d="M74.0167 72.5629L79.0521 68.8281C79.6484 68.3862 80 67.688 80 66.9458V37.6562C80 36.3623 78.9508 35.3125 77.6562 35.3125H70.625V70.4663C70.625 72.2082 72.4585 73.3417 74.0167 72.5629V72.5629Z" fill="#463B85"/>
</g>
<defs>
<clipPath id="clip0">
<rect width="80" height="80" fill="white"/>
</clipPath>
</defs>
</svg>
