<svg width="80" height="80" viewBox="0 0 80 80" fill="none" xmlns="http://www.w3.org/2000/svg">
<g clip-path="url(#clip0)">
<path d="M40.0016 80C39.8114 80 39.6213 79.9769 39.4353 79.9306C28.3705 77.1758 19.3184 70.7402 13.2581 61.3192C7.66391 52.6233 4.70703 41.6123 4.70703 29.477V11.7578C4.70703 10.4634 5.75641 9.41406 7.05078 9.41406C10.9494 9.41406 14.1211 6.24234 14.1211 2.34375C14.1211 1.04937 15.1705 0 16.4648 0H63.5352C64.8295 0 65.8789 1.04937 65.8789 2.34375C65.8789 6.24234 69.0506 9.41406 72.9492 9.41406C74.2436 9.41406 75.293 10.4634 75.293 11.7578V29.477C75.293 41.6127 72.3367 52.6236 66.7436 61.3191C60.6839 70.74 51.6325 77.1756 40.568 79.9305C40.3819 79.9769 40.1919 80 40.0016 80Z" fill="#00C364"/>
<path d="M72.9492 9.41406C69.0506 9.41406 65.8789 6.24234 65.8789 2.34375C65.8789 1.04937 64.8295 0 63.5351 0H39.9998V79.9998C40.0004 79.9998 40.0009 80 40.0015 80C40.1917 80 40.3818 79.9769 40.5678 79.9306C51.6323 77.1758 60.6839 70.7402 66.7434 61.3192C72.3365 52.6237 75.2928 41.6128 75.2928 29.4772V11.7578C75.2929 10.4634 74.2436 9.41406 72.9492 9.41406Z" fill="#00A769"/>
<path d="M40.0016 70.2608C39.7611 70.2608 39.5206 70.2237 39.2889 70.1498C31.6045 67.697 25.4992 63.0193 21.1425 56.247C16.5234 49.0668 14.082 39.81 14.082 29.477V18.6225C14.082 17.7858 14.5281 17.0123 15.2527 16.5934C17.7597 15.1439 19.8511 13.0525 21.3006 10.5454C21.7195 9.82107 22.4928 9.37482 23.3297 9.37482H56.6703C57.507 9.37482 58.2805 9.82091 58.6992 10.5454C60.1489 13.0525 62.2403 15.1439 64.7473 16.5936C65.4717 17.0125 65.918 17.7858 65.918 18.6225V29.477C65.918 39.8106 63.4769 49.0676 58.8588 56.2475C54.5027 63.0197 48.398 67.6972 40.7142 70.1498C40.4825 70.2239 40.242 70.2608 40.0016 70.2608V70.2608Z" fill="#EEFFCC"/>
<path d="M64.7473 16.5936C62.2403 15.1439 60.1489 13.0525 58.6992 10.5455C58.2804 9.82109 57.5072 9.375 56.6703 9.375H39.9998V70.2608H40.0015C40.242 70.2608 40.4825 70.2238 40.7142 70.1498C48.3979 67.6972 54.5026 63.0198 58.8587 56.2475C63.4769 49.0677 65.9179 39.8106 65.9179 29.477V18.6225C65.9179 17.7858 65.4718 17.0125 64.7473 16.5936V16.5936Z" fill="#D5FFAB"/>
<path d="M40 49.1016C32.3859 49.1016 26.1914 42.907 26.1914 35.293C26.1914 27.6789 32.3859 21.4844 40 21.4844C47.6141 21.4844 53.8086 27.6789 53.8086 35.293C53.8086 42.907 47.6141 49.1016 40 49.1016Z" fill="white"/>
<path d="M40 21.4844L39.9998 49.1016C47.6139 49.1016 53.8084 42.907 53.8084 35.293C53.8084 27.6789 47.614 21.4844 40 21.4844Z" fill="#EEFFCC"/>
<path d="M40 51.1719C31.2444 51.1719 24.1211 44.0486 24.1211 35.293C24.1211 26.5373 31.2444 19.4141 40 19.4141C48.7556 19.4141 55.8789 26.5373 55.8789 35.293C55.8789 44.0486 48.7556 51.1719 40 51.1719ZM40 24.1016C33.8291 24.1016 28.8086 29.122 28.8086 35.293C28.8086 41.4639 33.8291 46.4844 40 46.4844C46.1709 46.4844 51.1914 41.4639 51.1914 35.293C51.1914 29.122 46.1709 24.1016 40 24.1016Z" fill="#6BDE1E"/>
<path d="M37.5142 40.5925C37.3914 40.5925 37.2678 40.5829 37.1449 40.5632C36.4986 40.46 35.9249 40.0915 35.5625 39.5465L33.0339 35.7438C32.3172 34.666 32.61 33.2111 33.6878 32.4944C34.7656 31.7777 36.2203 32.0704 36.9372 33.1483L38.0588 34.835L43.5631 30.4963C44.5798 29.6949 46.0534 29.8696 46.8547 30.8861C47.6559 31.9027 47.4814 33.3765 46.4648 34.1777L38.9649 40.0894C38.5489 40.4175 38.037 40.5925 37.5142 40.5925V40.5925Z" fill="#6BDE1E"/>
<path d="M43.5634 30.4964L40 33.3051V39.2737L46.4653 34.1776C47.4819 33.3764 47.6564 31.9026 46.8552 30.8861C46.0538 29.8696 44.5802 29.695 43.5634 30.4964V30.4964Z" fill="#00C364"/>
<path d="M40 19.4141L39.9998 24.1016C46.1708 24.1016 51.1912 29.122 51.1912 35.293C51.1912 41.4639 46.1709 46.4844 40 46.4844C40 46.4844 40 46.4844 39.9998 46.4844V51.1719C48.7554 51.1719 55.8787 44.0486 55.8787 35.293C55.8787 26.5373 48.7556 19.4141 40 19.4141Z" fill="#00C364"/>
</g>
<defs>
<clipPath id="clip0">
<rect width="80" height="80" fill="white"/>
</clipPath>
</defs>
</svg>
